<svg width="164" height="52" viewBox="0 0 164 52" fill="none" xmlns="http://www.w3.org/2000/svg">
<path d="M78.1042 18.1671H74.5331C74.3231 18.1671 74.2355 18.2546 74.2355 18.4647V34.8144C74.2355 35.0245 74.148 35.112 73.9379 35.112H72.5375C72.3275 35.112 72.2399 35.0245 72.2399 34.8144V18.4647C72.2399 18.2546 72.1524 18.1671 71.9424 18.1671H68.3713C68.1613 18.1671 68.0737 18.0796 68.0737 17.8695V16.7667C68.0737 16.5566 68.1613 16.4691 68.3713 16.4691H78.1042C78.3142 16.4691 78.4017 16.5566 78.4017 16.7667V17.8695C78.4017 18.0796 78.3142 18.1671 78.1042 18.1671Z" fill="#040407"/>
<path d="M88.5893 28.6524H80.8695C80.6595 28.6524 80.572 28.7399 80.572 28.95V30.5429C80.572 32.2584 81.9899 33.7114 83.7054 33.7114C84.7207 33.7114 85.806 33.0637 86.5237 32.0309C86.5762 31.9433 86.6462 31.9083 86.7338 31.9083C86.8213 31.9083 86.9088 31.9609 87.0663 32.0309L88.1342 32.556C88.2567 32.6085 88.3442 32.6961 88.3442 32.8186C88.3442 32.9411 88.0466 33.3788 87.6965 33.7989C86.8913 34.7442 85.7185 35.3919 83.7229 35.3919C80.5895 35.3919 78.5939 33.4138 78.5939 30.5429V26.5518C78.5939 24.2761 80.572 21.7204 83.7229 21.7204C86.8563 21.7204 88.9044 24.2586 88.9044 26.5518V28.3548C88.8869 28.5649 88.7994 28.6524 88.5893 28.6524ZM86.8738 26.5518C86.8738 24.8363 85.4209 23.4184 83.7054 23.4184C81.9549 23.4184 80.572 24.8188 80.572 26.5518V26.9719C80.572 27.182 80.6595 27.2695 80.8695 27.2695H86.5762C86.7863 27.2695 86.8738 27.182 86.8738 26.9719V26.5518Z" fill="#040407"/>
<path d="M100.825 33.7989C100.02 34.7442 98.8471 35.3919 96.8515 35.3919C93.7181 35.3919 91.7225 33.4138 91.7225 30.5429V26.5518C91.7225 23.6809 93.7006 21.7204 96.8515 21.7204C98.8121 21.7204 100.02 22.3505 100.825 23.2608C101.175 23.6809 101.473 24.0836 101.473 24.2411C101.473 24.3636 101.385 24.4512 101.263 24.5037L100.195 25.0288C100.072 25.0813 99.9499 25.1514 99.8624 25.1514C99.7749 25.1514 99.7224 25.1164 99.6523 25.0288C98.9346 24.0135 97.8493 23.4009 96.834 23.4009C95.0835 23.4009 93.7006 24.8013 93.7006 26.5343V30.5254C93.7006 32.2409 95.1185 33.6939 96.834 33.6939C97.8493 33.6939 98.9346 33.0462 99.6523 32.0134C99.7049 31.9258 99.7749 31.8908 99.8624 31.8908C99.9849 31.8908 100.125 31.9784 100.248 32.0309L101.263 32.5385C101.385 32.591 101.473 32.6786 101.473 32.8011C101.473 32.9411 101.21 33.3263 100.825 33.7989Z" fill="#040407"/>
<path d="M114.375 35.1121H112.957C112.747 35.1121 112.659 35.0246 112.659 34.8145V26.8497C112.659 25.1342 111.206 23.7162 109.491 23.7162C107.74 23.7162 106.357 25.1167 106.357 26.8497V34.8145C106.357 35.0246 106.27 35.1121 106.06 35.1121H104.642C104.432 35.1121 104.344 35.0246 104.344 34.8145V16.7842C104.344 16.5742 104.432 16.4866 104.642 16.4866H106.06C106.27 16.4866 106.357 16.5742 106.357 16.7842V23.4712C106.357 23.6812 106.48 23.8038 106.603 23.8038C106.69 23.8038 106.778 23.7513 106.865 23.6637C107.898 22.3859 109.053 22.0358 109.788 22.0358C112.537 22.0358 114.672 24.0138 114.672 26.8672V34.832C114.672 35.0245 114.585 35.1121 114.375 35.1121Z" fill="#040407"/>
<path d="M135.783 17.4842L132.02 34.8667C131.985 35.0068 131.88 35.1118 131.722 35.1118H129.569C129.429 35.1118 129.306 35.0593 129.271 34.9018L126.698 25.9566C126.646 25.7466 126.401 24.5737 126.348 24.3287H126.261C126.208 24.5737 125.963 25.7116 125.91 25.9566L123.337 34.9018C123.302 35.0418 123.197 35.1118 123.04 35.1118H120.887C120.746 35.1118 120.624 35.0243 120.589 34.8667L116.825 17.4842C116.773 17.1516 116.685 16.8365 116.685 16.6789C116.685 16.5039 116.773 16.4339 116.983 16.4339H120.011C120.151 16.4339 120.274 16.5214 120.309 16.6789L122.024 25.8341C122.059 26.0442 122.269 27.4271 122.322 27.6721H122.462C122.515 27.4271 122.795 26.0792 122.847 25.8341L125.28 16.5914C125.315 16.4514 125.42 16.3813 125.578 16.3813H127.066C127.206 16.3813 127.328 16.4339 127.363 16.5914L129.797 25.8341C129.849 26.0792 130.129 27.4271 130.182 27.6721H130.322C130.374 27.4271 130.567 26.0967 130.619 25.8341L132.37 16.6789C132.405 16.5389 132.51 16.4339 132.667 16.4339H135.643C135.853 16.4339 135.941 16.4864 135.941 16.6789C135.941 16.8015 135.853 17.1866 135.783 17.4842Z" fill="#516AF2"/>
<path d="M144.378 27.1997H141.717C141.507 27.1997 141.42 27.2872 141.42 27.4973V34.8144C141.42 35.0245 141.332 35.112 141.122 35.112H138.304C138.094 35.112 138.006 35.0245 138.006 34.8144V16.7491C138.006 16.5391 138.094 16.4515 138.304 16.4515H144.378C147.757 16.4515 149.892 18.6397 149.892 21.9656C149.875 24.889 147.739 27.1997 144.378 27.1997ZM146.496 21.6856C146.496 20.5302 145.516 19.5499 144.361 19.5499H141.7C141.49 19.5499 141.402 19.6375 141.402 19.8475V23.7862C141.402 23.9962 141.49 24.0838 141.7 24.0838H144.361C145.516 24.0838 146.496 23.1035 146.496 21.9481V21.6856Z" fill="#516AF2"/>
<path d="M163.53 19.8649L161.166 21.0728C161.044 21.1253 160.921 21.2128 160.816 21.2128C160.729 21.2128 160.641 21.1603 160.571 21.0028C160.046 19.7249 159.276 19.2523 158.471 19.2523H156.51C155.355 19.2523 154.374 20.2326 154.374 21.3879V30.1579C154.374 31.3133 155.355 32.2936 156.51 32.2936H157.963C159.153 32.2936 160.064 31.3483 160.064 30.1579V28.7575C160.064 28.5475 159.976 28.46 159.766 28.46H156.983C156.773 28.46 156.685 28.3724 156.685 28.1624V25.6416C156.685 25.4316 156.773 25.344 156.983 25.344H163.18C163.39 25.344 163.477 25.4316 163.477 25.6416V30.1404C163.477 33.2213 161.324 35.3745 157.963 35.3745H156.51C153.132 35.3745 150.996 33.2213 150.996 30.1404V21.3704C150.996 18.2895 153.132 16.1364 156.51 16.1364H158.471C160.921 16.1364 162.269 17.1517 163.145 18.5346C163.407 18.9722 163.705 19.4448 163.705 19.6374C163.705 19.7424 163.652 19.7949 163.53 19.8649Z" fill="#516AF2"/>
<path d="M42.4106 16.4537H39.3707C39.2219 16.4537 39.105 16.5387 39.0731 16.6875L37.3086 25.9029C37.2449 26.1687 37.0748 27.5186 37.011 27.7524H36.8622C36.7984 27.5186 36.5327 26.1368 36.4796 25.9029L34.0349 16.5919C34.003 16.4431 33.8861 16.3793 33.7373 16.3793H32.2492C32.1004 16.3793 31.9835 16.4431 31.9516 16.5919L29.5069 25.9029C29.4431 26.1368 29.1774 27.5186 29.1243 27.7524H28.9754C28.9117 27.5186 28.7097 26.1155 28.6778 25.9029L27.8807 21.6513H24.3624L27.2535 35.0014C27.2854 35.1502 27.4023 35.2353 27.5511 35.2353H29.7301C29.8789 35.2353 29.9958 35.1715 30.0277 35.0227L32.6212 26.0092C32.685 25.7754 32.9188 24.6062 32.9826 24.3724H33.0676C33.1314 24.6062 33.3653 25.8073 33.429 26.0092L36.0225 35.0227C36.0544 35.1715 36.1713 35.2353 36.3201 35.2353H38.4991C38.6479 35.2353 38.7648 35.1502 38.7967 35.0014L42.5807 17.4847C42.6444 17.1871 42.7295 16.7938 42.7295 16.6769C42.7188 16.5175 42.6232 16.4537 42.4106 16.4537Z" fill="#516AF2"/>
<path d="M26.7963 19.5904H23.5438C23.3313 19.5904 23.2462 19.6754 23.2462 19.888V34.96C23.2462 35.1726 23.1612 35.2576 22.9486 35.2576H20.1425C19.93 35.2576 19.8449 35.1726 19.8449 34.96V19.888C19.8449 19.6754 19.7599 19.5904 19.5473 19.5904H16.2948C16.0822 19.5904 15.9972 19.5053 15.9972 19.2928V16.7524C15.9972 16.5398 16.0822 16.4548 16.2948 16.4548H26.7963C27.0089 16.4548 27.094 16.5398 27.094 16.7524V19.2928C27.094 19.5053 27.0089 19.5904 26.7963 19.5904Z" fill="#040407"/>
<path d="M1.74364 24.9678C1.71175 24.9678 1.67987 24.9571 1.64798 24.9465C1.55232 24.8934 1.52043 24.7658 1.57358 24.6701L15.2319 0.999176H33.9285C34.0348 0.999176 34.1305 1.08421 34.1305 1.20113C34.1305 1.31805 34.0454 1.40308 33.9285 1.40308H15.4658L1.91371 24.8615C1.88182 24.9252 1.81804 24.9678 1.74364 24.9678Z" fill="#516AF2"/>
<path d="M49.2339 40.7732C49.202 40.7732 49.1701 40.7626 49.1382 40.752C49.0426 40.6988 49.0107 40.5713 49.0638 40.4756L57.5884 25.7225L43.9725 2.13654C43.9194 2.04088 43.9512 1.92396 44.0469 1.86018C44.1426 1.80704 44.2595 1.83892 44.3126 1.93459L58.0454 25.7225L49.4146 40.6776C49.3721 40.7414 49.3083 40.7732 49.2339 40.7732Z" fill="#516AF2"/>
<path d="M42.602 50.4347H15.2322L15.179 50.3391L6.52694 35.3521C6.4738 35.2564 6.50569 35.1395 6.60135 35.0757C6.69701 35.0226 6.81393 35.0545 6.86707 35.1501L15.4554 50.0308H42.5914C42.6977 50.0308 42.7934 50.1159 42.7934 50.2328C42.804 50.3497 42.719 50.4347 42.602 50.4347Z" fill="#516AF2"/>
<path d="M1.19046 26.7854C0.882214 26.7854 0.584599 26.6685 0.35076 26.4346C-0.11692 25.967 -0.11692 25.2123 0.35076 24.7446C0.797181 24.2982 1.58373 24.2982 2.04078 24.7446C2.50846 25.2123 2.50846 25.967 2.04078 26.4346C1.80694 26.6685 1.4987 26.7854 1.19046 26.7854ZM1.19046 24.7978C0.977875 24.7978 0.775923 24.8828 0.627116 25.0316C0.318872 25.3398 0.318872 25.85 0.627116 26.1583C0.935359 26.4665 1.44555 26.4665 1.7538 26.1583C2.06204 25.85 2.06204 25.3398 1.7538 25.0316C1.60499 24.8828 1.40304 24.7978 1.19046 24.7978Z" fill="#040407"/>
<path d="M43.601 51.434C43.2927 51.434 42.9951 51.3171 42.7613 51.0833C42.2936 50.6156 42.2936 49.8609 42.7613 49.3933C43.229 48.9256 43.9836 48.9256 44.4513 49.3933C44.919 49.8609 44.919 50.6156 44.4513 51.0833C44.2068 51.3171 43.8986 51.434 43.601 51.434ZM43.601 49.4464C43.399 49.4464 43.1971 49.5208 43.0376 49.6802C42.7294 49.9885 42.7294 50.4987 43.0376 50.8069C43.3459 51.1152 43.8561 51.1152 44.1643 50.8069C44.4726 50.4987 44.4726 49.9885 44.1643 49.6802C44.0049 49.5208 43.8029 49.4464 43.601 49.4464Z" fill="#040407"/>
<path d="M43.601 2.39154C43.2927 2.39154 42.9951 2.27462 42.7613 2.04078C42.2936 1.5731 42.2936 0.818439 42.7613 0.35076C43.229 -0.11692 43.9836 -0.11692 44.4513 0.35076C44.919 0.818439 44.919 1.5731 44.4513 2.04078C44.2068 2.27462 43.8986 2.39154 43.601 2.39154ZM43.601 0.403905C43.399 0.403905 43.1971 0.478309 43.0376 0.637745C42.7294 0.945988 42.7294 1.45618 43.0376 1.76443C43.3459 2.07267 43.8561 2.07267 44.1643 1.76443C44.4726 1.45618 44.4726 0.945988 44.1643 0.637745C44.0049 0.488938 43.8029 0.403905 43.601 0.403905Z" fill="#040407"/>
</svg>
